# xmcd
#
# Track frame offsets:
#	151
#	17467
#	29696
#	46734
#	62867
#	79732
#	91601
#	101832
#	114811
#	129438
#	142732
#	155119
#	165514
#	181084
#
# Disc length: 2609 seconds
#
# Revision: 1
# Processed by: cddbd v1.5.2PL0 Copyright (c) Steve Scherf et al.
# Submitted via: audiograbber 1.83.01
#
DISCID=a20a2f0e
DTITLE=Hermann Lammers Meyer - I'd Like To Live It Again
DYEAR=2001
DGENRE=Country
TTITLE0=When Angel Falls
TTITLE1=Faithful (with Marion Möhring)
TTITLE2=Foggy Mountain Top (with Norma Jean)
TTITLE3=She Dances Alone
TTITLE4=Bear Creek Lounge
TTITLE5=What Took You So Long
TTITLE6=(You Make) A Left And Then A Right (with Lois Johnson)
TTITLE7=Rose Of The Mountains (with The Callaways)
TTITLE8=Best Part Of Nothing (with David Frizzell)
TTITLE9=That's All It Took (with Marion Möhring)
TTITLE10=I'd Like To Living Again
TTITLE11=Y' All Come (with Michael Ballew)
TTITLE12=In My Reply (with Marion Möhring)
TTITLE13=Step By Step
EXTD=
EXTT0=
EXTT1=
EXTT2=
EXTT3=
EXTT4=
EXTT5=
EXTT6=
EXTT7=
EXTT8=
EXTT9=
EXTT10=
EXTT11=
EXTT12=
EXTT13=
PLAYORDER=
